<?xml version="1.0" standalone="no"?><!DOCTYPE svg PUBLIC "-//W3C//DTD SVG 1.1//EN" "http://www.w3.org/Graphics/SVG/1.1/DTD/svg11.dtd"><svg class="icon" height="512" viewBox="0 0 1024 1024" version="1.1" xmlns="http://www.w3.org/2000/svg"><path d="M261.184006 884.788998C261.184006 919.871686 284.570822 931.669146 313.419921 910.993984L439.709002 820.486918C461.612168 823.542733 484.075938 825.130202 506.963996 825.130202 740.739373 825.130202 930.251757 659.52103 930.251757 455.231767 930.251757 250.942503 740.739373 85.333333 506.963996 85.333333 273.188621 85.333333 83.676236 250.942503 83.676236 455.231767 83.676236 579.434123 153.72592 689.33911 261.184006 756.422496L261.184006 884.788998ZM227.292387 810.71207C98.689281 730.428384 19.676236 599.218743 19.676236 455.231767 19.676236 213.53338 239.617495 21.333333 506.963996 21.333333 774.310496 21.333333 994.251757 213.53338 994.251757 455.231767 994.251757 696.93015 774.310496 889.130202 506.963996 889.130202 481.314338 889.130202 455.89398 887.364819 430.865715 883.873011L439.709002 820.486918 476.990184 872.507238 350.701103 963.014304C279.786205 1013.836582 197.184006 972.326771 197.184006 884.788998L197.184006 756.422496 227.292387 810.71207ZM670.3424 458.2208a0.8236 0.8264 0 1 0 105.4208 0 0.8236 0.8264 0 1 0-105.4208 0ZM457.0112 458.2208a0.8236 0.8264 0 1 0 105.4208 0 0.8236 0.8264 0 1 0-105.4208 0ZM243.68 458.2208a0.8236 0.8264 0 1 0 105.4208 0 0.8236 0.8264 0 1 0-105.4208 0Z" /></svg>